<svg class="rpr-svg-icon icon-info" width="20" height="20" aria-hidden="true" role="img" focusable="false" xmlns="http://www.w3.org/2000/svg" viewBox="0 0 24 24"><path d="M11.972 7.887c.63 0 1.027-.432 1.009-.972 0-.557-.379-.99-.972-.99-.575 0-.99.432-.99.99 0 .54.396.972.953.972zm.829 9.584v-7.398c0-.652-.527-.707-.676-.71h-.283s-.625.007-.625.576v7.652c.012.173.087.483.5.483h.591c.175-.014.493-.105.493-.603zM12 0C5.373 0 0 5.372 0 12c0 6.627 5.372 12 12 12s12-5.373 12-12c0-6.628-5.372-12-12-12zm0 22C6.477 22 2 17.522 2 12 2 6.477 6.477 2 12 2c5.524 0 10 4.477 10 10 0 5.522-4.476 10-10 10z" fill-rule="evenodd"></path></svg>